<svg width="32" height="32" viewBox="0 0 32 32" xmlns="http://www.w3.org/2000/svg" role="img" aria-label="LexMetrik">
  <!-- LexMetrik-Siegel, Favicon-Variante: gezeichnetes § (schriftunabhängig, bei
       16px scharf) auf einer Messing-Messkante mit Messpunkt — «Recht ⨉ Metrik».
       Bewusst weniger Skalenstriche als die App-Bildmarke, damit es klein trägt. -->
  <rect x="1" y="1" width="30" height="30" rx="7" fill="#1A1A17"/>
  <path d="M18.7 11.6c0-1.8-1.2-2.9-2.7-2.9-1.5 0-2.5.9-2.5 2.1 0 1 .7 1.7 2.2 2.4
           M13.3 20.4c0 1.8 1.2 2.9 2.7 2.9 1.5 0 2.5-.9 2.5-2.1 0-1-.7-1.7-2.2-2.4
           M13.7 10.4 18.3 21.6"
        fill="none" stroke="#F7F4EC" stroke-width="1.7" stroke-linecap="round" stroke-linejoin="round"/>
  <g stroke="#B08D4A" stroke-width=".8" stroke-linecap="round">
    <line x1="9" y1="26" x2="9" y2="27"/><line x1="12.5" y1="26" x2="12.5" y2="27"/>
    <line x1="16" y1="25" x2="16" y2="27.2" stroke-width="1.1"/>
    <line x1="19.5" y1="26" x2="19.5" y2="27"/><line x1="23" y1="26" x2="23" y2="27"/>
  </g>
  <circle cx="16" cy="23.6" r=".9" fill="#B08D4A"/>
</svg>
